HIERARCHY
ROOT Hips
{
	OFFSET -10.056300 7.733760 -472.550000
	CHANNELS 6 Xposition Yposition Zposition Zrotation Yrotation Xrotation 
	JOINT Spine
	{
		OFFSET 0.000000 0.000000 0.000000
		CHANNELS 3 Zrotation Yrotation Xrotation
		JOINT Spine1
		{
			OFFSET 19.000000 0.000000 0.000000
			CHANNELS 3 Zrotation Yrotation Xrotation
			JOINT Neck
			{
				OFFSET 22.500000 0.600000 0.000000
				CHANNELS 3 Zrotation Yrotation Xrotation
				JOINT Head
				{
					OFFSET 14.000000 0.030878 0.000000
					CHANNELS 3 Zrotation Yrotation Xrotation
					End Site
					{
						OFFSET 17.000000 0.000000 0.000000
					}
				}
			}
			JOINT LeftShoulder
			{
				OFFSET 19.800000 3.700000 4.300000
				CHANNELS 3 Zrotation Yrotation Xrotation
				JOINT LeftArm
				{
					OFFSET 8.000000 0.000000 0.000000
					CHANNELS 3 Zrotation Yrotation Xrotation
					JOINT LeftForeArm
					{
						OFFSET 15.200000 0.000000 0.000000
						CHANNELS 3 Zrotation Yrotation Xrotation
						JOINT LeftHand
						{
							OFFSET 17.800000 0.000000 0.000000
							CHANNELS 3 Zrotation Yrotation Xrotation
							End Site
							{
								OFFSET 7.200000 0.000000 0.000000
							}
						}
					}
				}
			}
			JOINT RightShoulder
			{
				OFFSET 19.800000 3.700000 -4.300000
				CHANNELS 3 Zrotation Yrotation Xrotation
				JOINT RightArm
				{
					OFFSET 8.000000 0.000000 0.151654
					CHANNELS 3 Zrotation Yrotation Xrotation
					JOINT RightForeArm
					{
						OFFSET 15.200000 0.000000 0.000000
						CHANNELS 3 Zrotation Yrotation Xrotation
						JOINT RightHand
						{
							OFFSET 17.800000 0.000000 0.000000
							CHANNELS 3 Zrotation Yrotation Xrotation
							End Site
							{
								OFFSET 7.200000 0.000000 0.000000
							}
						}
					}
				}
			}
		}
	}
	JOINT LeftUpLeg
	{
		OFFSET 5.984250 -7.666000 4.788790
		CHANNELS 3 Zrotation Yrotation Xrotation
		JOINT LeftLeg
		{
			OFFSET 16.000000 0.000000 0.000000
			CHANNELS 3 Zrotation Yrotation Xrotation
			JOINT LeftFoot
			{
				OFFSET 18.000000 0.000000 0.000000
				CHANNELS 3 Zrotation Yrotation Xrotation
				End Site
				{
					OFFSET 0.000000 -10.800000 0.000000
				}
			}
		}
	}
	JOINT RightUpLeg
	{
		OFFSET 5.984250 -7.665980 -4.788790
		CHANNELS 3 Zrotation Yrotation Xrotation
		JOINT RightLeg
		{
			OFFSET 16.000000 0.000000 0.000000
			CHANNELS 3 Zrotation Yrotation Xrotation
			JOINT RightFoot
			{
				OFFSET 18.000000 0.000000 0.000000
				CHANNELS 3 Zrotation Yrotation Xrotation
				End Site
				{
					OFFSET 0.000000 -10.800000 0.000000
				}
			}
		}
	}
	JOINT Tail
	{
		OFFSET 6.836960 -0.722574 0.000000
		CHANNELS 3 Zrotation Yrotation Xrotation
		JOINT Tail1
		{
			OFFSET 12.000000 0.000000 0.000000
			CHANNELS 3 Zrotation Yrotation Xrotation
			End Site
			{
				OFFSET 12.000000 0.000000 0.000000
			}
		}
	}
}
MOTION
Frames: 16
Frame Time: 0.033333
-2214089.750000 -285240.906250 -169026.500000 87.320496 -27.962923 28.512655 -116.918243 -14.793255 -2.764412 -50.089680 16.002480 -2.063915 -34.389881 -1.086599 -2.104153 24.091627 8.251490 -101.579163 35.581432 -42.426292 -49.981411 19.850866 -54.502354 60.595421 115.274055 -32.966244 -29.270287 -130.332550 -30.994110 82.987480 -89.235786 -16.712385 -167.435562 2.629114 19.878744 14.281395 -173.328842 5.578963 -137.578934 -149.333755 32.793552 114.041100 -171.819580 -50.034061 24.774687 112.872978 -24.929382 67.082443 152.342072 -27.084743 -84.770164 -158.362061 8.676342 48.767498 36.912289 54.633030 -26.552086 -166.118301 16.465456 -7.452915 134.945480 2.787992 18.436239 24.181444 18.088242 -127.296021 
-2225293.000000 -283044.906250 -181211.015625 88.411514 -25.500654 32.395401 -115.264534 -16.196985 -3.602519 -52.343422 17.601402 -1.247199 -33.869476 -0.535980 -2.384667 25.224552 6.246551 -101.062782 46.910461 -45.410217 -57.183796 9.028274 -52.440659 58.797810 120.239983 -8.317305 -33.663246 -136.515121 -32.969166 85.163094 -95.667801 -25.419020 -162.942703 -19.578053 -10.227966 -2.496982 -152.451126 -4.122142 -145.195511 -159.787094 34.969585 107.552650 -166.298340 -48.469070 22.152531 107.740723 -22.192989 68.033279 149.711121 -34.279110 -86.455536 -155.545929 5.202801 46.743706 39.676746 44.689999 -29.014807 -145.049911 -2.919188 5.226418 143.476517 4.686256 21.962418 38.887905 12.616881 -105.974213 
-2241535.500000 -276185.625000 -193386.171875 85.197151 -22.383467 36.329662 -113.839539 -17.512060 -4.493174 -55.051655 19.090309 -0.880661 -33.007854 -0.489507 -2.794171 25.582878 5.529886 -101.319138 68.145226 -45.595139 -75.102997 -3.482196 -49.641273 63.445602 127.476677 11.618956 -34.646065 -144.596039 -32.950027 91.597374 -101.338364 -29.954453 -158.496475 -27.648106 -29.621719 6.283165 -138.245773 -13.605795 -152.095627 -173.011124 41.095322 99.254593 -159.924515 -46.002914 17.963390 104.136314 -20.087267 67.607849 144.889099 -44.270092 -88.336418 -153.289688 0.334141 41.840069 43.305603 33.893703 -31.743357 -133.871597 -20.854506 12.968812 149.662430 4.814400 29.778101 82.357346 -5.218329 -74.038513 
-2263591.250000 -272145.281250 -204218.906250 78.533234 -20.430515 39.601788 -112.830750 -18.789700 -5.387093 -57.579659 20.460493 -0.872258 -32.019524 -0.788642 -3.601801 25.038027 6.222936 -102.724030 92.279320 -37.035141 -97.443565 -15.477647 -45.969746 72.743584 135.127930 24.328068 -35.149593 -156.592239 -27.745672 108.348579 -106.224281 -31.350990 -154.951706 -32.762001 -41.358578 22.762018 -130.217087 -23.872744 -156.355743 170.263977 51.748398 93.316025 -154.582748 -42.825912 13.642607 103.923424 -18.913158 66.123466 139.968964 -54.143238 -90.749474 -151.524261 -4.610223 34.934280 46.169678 21.996588 -35.037334 -130.027603 -30.383101 18.369099 153.063889 3.378445 40.448841 -52.474937 -30.263615 -137.851913 
-2287386.500000 -266021.500000 -215959.718750 70.152763 -19.853168 41.411346 -112.559036 -20.075672 -6.216424 -59.588642 21.730160 -1.150129 -30.992268 -1.170279 -4.792427 23.581823 7.634756 -104.953079 109.732262 -19.651342 -114.969658 -25.360092 -42.843082 83.396370 140.245712 31.807951 -38.196114 -166.065094 -17.524145 126.908012 -109.841454 -30.502766 -152.737793 -36.950336 -48.788357 41.710468 -128.233444 -36.323296 -156.033722 139.163071 65.344856 74.585297 -150.657364 -39.519150 9.959543 106.704521 -18.106586 64.653297 136.634796 -59.862041 -92.489571 -149.901642 -7.718070 26.731852 48.436077 10.101427 -38.230724 -130.978058 -33.717487 24.340790 153.705414 0.864482 51.506889 -20.234535 -8.364469 -123.844276 
-2310843.750000 -264339.562500 -226021.453125 60.825562 -20.374908 43.704952 -113.092827 -21.423964 -6.987252 -60.906631 23.107836 -1.764947 -30.122366 -1.762881 -6.188506 21.561544 9.128785 -107.671135 121.676071 1.639238 -129.163803 -33.603683 -41.350574 93.309113 142.252991 38.144077 -42.922657 -170.555130 -8.277049 140.492126 -112.053200 -28.453217 -151.359161 -41.146660 -52.768906 61.059593 -137.021957 -50.819469 -146.967926 69.670227 70.205040 19.515678 -148.956772 -36.600414 7.754154 112.249260 -17.660189 64.034851 134.661728 -60.580112 -92.420975 -149.015533 -8.184581 18.363653 50.693615 -0.585352 -40.499165 -132.323303 -35.438412 31.112343 153.022873 -1.923713 60.687122 -13.122241 -4.356151 -119.013611 
-2335409.250000 -268716.343750 -233728.375000 52.230587 -19.451912 45.645416 -114.382896 -22.848083 -7.711216 -61.450260 24.600203 -2.633566 -29.281975 -2.593528 -7.289990 19.639635 10.042483 -110.230919 129.285156 22.521276 -143.974564 -40.845402 -42.405666 102.462013 142.386002 44.376186 -46.244293 -172.578781 -2.643336 148.852783 -113.699028 -26.723286 -148.455704 -44.201015 -52.734211 77.499512 -166.023636 -60.886147 -117.866669 28.003935 55.611458 -10.776135 -149.805527 -34.368511 7.480892 116.712120 -17.277119 64.314789 134.136581 -60.574730 -94.646980 -149.049530 -7.549368 11.212996 54.313644 -7.985499 -42.564220 -132.505783 -38.017719 38.819916 152.520767 -4.099098 67.394173 -10.471407 -3.488389 -119.163834 
-2353042.000000 -270413.750000 -238187.531250 45.752026 -17.344862 46.149662 -116.456001 -24.300529 -8.376455 -61.451344 26.268185 -3.759986 -28.506065 -3.755899 -7.751717 18.195953 9.899181 -112.327179 132.076523 41.443424 -161.488541 -46.889442 -44.579861 111.444611 144.973816 51.239231 -43.887291 -174.031250 0.756473 153.216141 -115.963905 -24.539961 -144.388504 -45.958481 -49.227913 90.282272 150.833511 -56.970516 -74.145370 18.045815 39.585712 -15.594086 -152.203812 -33.353489 8.491405 118.275414 -17.283625 65.171188 133.490707 -60.550068 -96.822174 -149.633286 -6.832279 5.883483 59.999458 -12.336491 -45.109264 -131.208771 -41.531628 47.157623 150.884506 -6.675368 74.413635 -9.236526 -4.836743 -119.605400 
-2369087.250000 -275612.812500 -239678.984375 39.957378 -14.260598 47.443626 -119.098640 -25.704445 -9.007303 -61.375973 28.331867 -5.328256 -28.056234 -5.346982 -7.565027 17.469517 8.926244 -114.127647 128.912491 52.820652 179.104233 -49.334984 -45.415344 120.008026 154.351715 57.443356 -33.594818 -175.157791 2.575621 153.061996 -119.132301 -20.793961 -140.717819 -46.885948 -43.553883 99.765282 123.121178 -39.497433 -45.513313 13.709102 27.734764 -16.306385 -154.358383 -33.358585 9.471604 116.667755 -18.246758 66.861931 131.989838 -60.713528 -97.568222 -150.650742 -6.584181 2.738205 65.907684 -14.581532 -48.092072 -127.873497 -45.403332 54.694279 147.302536 -9.958173 83.702843 -8.750399 -9.006255 -120.505798 
-2380735.000000 -274849.156250 -238616.953125 34.529842 -10.965176 49.847198 -122.091690 -26.977556 -9.612938 -61.667980 30.735870 -7.450885 -27.841887 -6.932929 -6.930921 17.377001 7.605733 -115.903633 123.206459 56.256859 160.937546 -47.733967 -45.178566 127.815178 168.847778 58.744789 -18.510778 -174.766434 4.133882 151.044067 -122.993408 -15.055447 -138.095047 -47.147480 -36.628689 106.465233 110.170036 -17.091326 -30.120375 10.712176 22.801119 -15.872551 -155.377777 -34.043602 9.917217 111.455238 -20.321630 69.028328 129.734985 -60.940502 -96.829002 -151.731216 -7.516168 2.019749 70.310112 -15.358303 -51.555847 -122.233315 -48.034035 58.598766 142.322861 -12.742702 93.458450 -8.653040 -16.069550 -123.858246 
-2389248.250000 -279806.906250 -237138.625000 28.787535 -8.672059 52.462723 -125.051865 -28.069071 -10.200162 -62.683472 33.333012 -10.207040 -28.225479 -8.353323 -5.954592 17.675228 5.983786 -118.088089 119.991867 55.132893 148.660233 -42.880501 -43.986214 133.086243 177.471527 53.189457 -10.935978 -172.337021 6.518004 151.100052 -127.483887 -7.318705 -137.102386 -47.537491 -29.636805 110.668480 104.445831 4.689949 -18.233315 6.052301 22.740076 -16.343468 -155.217697 -35.093655 9.920016 103.296822 -23.401842 72.079041 126.305656 -60.225113 -93.028168 -151.790298 -8.766809 2.613171 72.707535 -14.845924 -55.743561 -115.868347 -48.306923 58.403572 136.361740 -16.201216 101.777077 -8.448411 -23.748419 -130.077805 
-2398137.500000 -288701.968750 -237926.109375 23.267321 -7.596532 54.787064 -127.858482 -28.898819 -10.716489 -64.471519 35.977371 -13.581553 -29.302097 -9.654153 -4.739014 18.492619 4.189598 -120.489532 119.887642 52.193878 141.590866 -37.115101 -42.217823 136.219666 175.977341 44.046238 -16.735989 -169.670135 9.248259 150.361649 -131.923538 0.927643 -137.220200 -48.057972 -23.380772 112.281982 103.986542 20.741114 -7.976223 2.029185 23.798141 -17.646368 -154.026062 -35.850075 9.615204 93.136772 -26.086155 76.849686 122.168053 -58.485241 -86.894493 -151.178391 -8.888056 3.697819 73.259354 -12.663982 -59.516735 -111.338570 -48.085869 57.940418 130.621445 -22.092407 107.624962 -6.978723 -27.645115 -139.554260 
-2412339.250000 -298429.750000 -240469.781250 18.532675 -7.132091 55.436462 -130.521255 -29.409140 -11.088369 -66.917938 38.562145 -17.490038 -30.553877 -10.694729 -3.299281 19.924864 2.539896 -123.059296 118.926071 50.800732 134.752670 -33.878090 -41.965672 138.213257 171.911270 36.119179 -28.114052 -168.191467 9.630767 144.526596 -136.150879 8.028701 -136.937775 -48.619228 -18.259264 111.376060 107.171440 29.256229 1.065378 -0.733839 22.478252 -19.445415 -153.199966 -36.236595 9.815559 82.353584 -26.471224 82.555092 118.165489 -56.463902 -80.462807 -149.704575 -7.202337 4.768884 73.142914 -8.821484 -62.516197 -107.726265 -48.204868 57.115864 126.879105 -30.344913 109.860931 -4.387861 -25.544796 -150.876495 
-2435292.500000 -307932.843750 -245632.484375 14.741122 -7.449859 53.853786 -133.108978 -29.562860 -11.260771 -69.802406 41.046906 -21.793203 -31.936888 -11.462848 -1.658823 21.978037 0.754962 -126.068604 115.587616 51.287807 125.588509 -32.696495 -42.829628 139.018524 174.813950 37.724644 -31.095821 -167.521530 6.259696 131.275375 -140.683350 13.873955 -135.829239 -49.530624 -14.398600 108.479706 111.656235 33.109863 10.156178 -2.604954 14.882530 -20.679377 -153.438354 -36.417316 10.953678 72.076485 -24.140415 87.546349 115.158417 -54.499352 -75.253090 -148.008575 -3.683351 5.691765 73.792526 -3.652716 -65.082268 -104.979424 -49.503864 56.978191 125.095123 -39.857777 109.457672 -3.247952 -20.475527 -159.698837 
-2458447.000000 -304967.750000 -253224.843750 11.974147 -8.566690 52.150135 -135.722473 -29.369717 -11.204093 -72.905113 43.450405 -26.353107 -33.036423 -12.082214 -0.523784 24.563450 -1.025583 -129.078598 107.967590 52.046242 111.783287 -32.740307 -44.253567 139.332794 -162.458862 46.870380 -7.764978 -166.000824 -0.415533 109.228539 -146.229294 19.232922 -135.172394 -50.695709 -11.478143 105.035797 115.299950 35.056217 18.606478 -2.892066 2.787434 -20.589325 -154.331879 -36.449223 12.682437 63.756153 -20.263178 91.499931 113.060120 -53.179886 -71.874458 -147.295624 0.417580 7.907036 74.520111 1.116516 -67.401001 -102.769119 -51.219810 56.795486 124.461464 -48.346329 108.293869 -3.752340 -16.095016 -165.428162 
-2482949.750000 -309441.031250 -261959.625000 9.514812 -10.098149 50.396721 -138.344101 -28.836975 -10.933640 -76.001167 45.766949 -31.003931 -33.323055 -12.434789 -0.234590 26.867298 -1.278226 -131.958679 93.948151 49.680138 90.382339 -33.754314 -46.032955 139.822113 -124.468651 41.105915 34.317348 -162.057114 -7.026881 84.890869 -153.919800 24.718683 -136.717896 -52.084251 -9.615388 101.475243 118.240677 35.910305 26.727339 -0.133722 -10.989002 -20.070992 -155.904526 -36.428017 14.578424 58.073761 -16.219181 95.135628 111.738884 -52.657875 -70.465927 -147.088562 4.349164 11.855331 74.768494 4.364541 -70.261566 -100.839775 -51.561787 54.967373 124.746666 -54.078159 106.392799 -5.155627 -13.979729 -169.161316 
